<?xml version="1.0" encoding="UTF-8" standalone="no"?>
<svg
   xmlns:dc="http://purl.org/dc/elements/1.1/"
   xmlns:cc="http://creativecommons.org/ns#"
   xmlns:rdf="http://www.w3.org/1999/02/22-rdf-syntax-ns#"
   xmlns:svg="http://www.w3.org/2000/svg"
   xmlns="http://www.w3.org/2000/svg"
   xmlns:sodipodi="http://sodipodi.sourceforge.net/DTD/sodipodi-0.dtd"
   xmlns:inkscape="http://www.inkscape.org/namespaces/inkscape"
   inkscape:version="1.0rc1 (09960d6, 2020-04-09)"
   sodipodi:docname="s-logo-dark.svg"
   id="svg913"
   version="1.1"
   viewBox="0 0 384 512"
   role="img"
   class="svg-inline--fa fa-stripe-s fa-w-12"
   data-icon="stripe-s"
   data-prefix="fab"
   focusable="false"
   aria-hidden="true">
  <metadata
     id="metadata919">
    <rdf:RDF>
      <cc:Work
         rdf:about="">
        <dc:format>image/svg+xml</dc:format>
        <dc:type
           rdf:resource="http://purl.org/dc/dcmitype/StillImage" />
        <dc:title></dc:title>
      </cc:Work>
    </rdf:RDF>
  </metadata>
  <defs
     id="defs917" />
  <sodipodi:namedview
     inkscape:current-layer="svg913"
     inkscape:window-maximized="0"
     inkscape:window-y="334"
     inkscape:window-x="872"
     inkscape:cy="256"
     inkscape:cx="192"
     inkscape:zoom="1.4355469"
     showgrid="false"
     id="namedview915"
     inkscape:window-height="972"
     inkscape:window-width="1224"
     inkscape:pageshadow="2"
     inkscape:pageopacity="0"
     guidetolerance="10"
     gridtolerance="10"
     objecttolerance="10"
     borderopacity="1"
     bordercolor="#666666"
     pagecolor="#ffffff"
     inkscape:document-rotation="0" />
  <path
     style="fill:#5801cb;fill-opacity:1"
     id="path911"
     d="M155.3 154.6c0-22.3 18.6-30.9 48.4-30.9 43.4 0 98.5 13.3 141.9 36.7V26.1C298.3 7.2 251.1 0 203.8 0 88.1 0 11 60.4 11 161.4c0 157.9 216.8 132.3 216.8 200.4 0 26.4-22.9 34.9-54.7 34.9-47.2 0-108.2-19.5-156.1-45.5v128.5a396.09 396.09 0 0 0 156 32.4c118.6 0 200.3-51 200.3-153.6 0-170.2-218-139.7-218-203.9z"
     fill="currentColor" />
</svg>
